<svg id="Layer_1" data-name="Layer 1" xmlns="http://www.w3.org/2000/svg" viewBox="0 0 103.84 26.78"><path d="M29.37,21.63H29c-.11,0-.13.05-.13.13v2.76c0,.65.05,1.83,1.39,1.83.37,0,1.58-.08,1.58-1.73V23.34a11.09,11.09,0,0,0-.06-1.44c0-.25-.1-.27-.32-.27h-.33v-.27h1.54v.27h-.23c-.22,0-.26,0-.26.11v2.9A2,2,0,0,1,30,26.73c-1.68,0-2.12-.91-2.12-1.8V22.75c0-1.09-.05-1.12-.31-1.12h-.37v-.27h2.13Z" transform="translate(-2.67 -3.1)" fill="#036"/><path d="M37.76,25.08V23.34a11.09,11.09,0,0,0-.06-1.44c0-.25-.1-.27-.32-.27h-.33v-.27h1.54v.27h-.23c-.22,0-.26,0-.26.11v4.82c0,.05,0,.09-.08.09s-.12-.06-.25-.21l-3.63-4.12v2.27A11.09,11.09,0,0,0,34.2,26c0,.26.1.27.32.27h.33v.27H33.32V26.3h.23c.21,0,.25,0,.25-.11V22.46c0-.46-.18-.83-.5-.83h-.24v-.27h1.42Z" transform="translate(-2.67 -3.1)" fill="#036"/><path d="M40.65,25.18c0,1.09.05,1.12.31,1.12h.37v.27H39.21V26.3h.37c.1,0,.12-.05.12-.13V22.75c0-1.09-.05-1.12-.31-1.12H39v-.27h2.12v.27h-.36c-.11,0-.13.05-.13.13Z" transform="translate(-2.67 -3.1)" fill="#036"/><path d="M46.81,21.63h-.37s-.06,0-.14.2l-2,4.79c0,.09-.06.14-.12.14s-.07,0-.1-.09l-1.71-4.06c-.38-.87-.45-1-.66-1h-.26v-.27h2v.27h-.35c-.09,0-.14,0-.14.06s.15.34.32.74l1.19,2.8,1-2.33a5.42,5.42,0,0,0,.36-1.15c0-.1-.07-.12-.2-.12h-.43v-.27h1.56Z" transform="translate(-2.67 -3.1)" fill="#036"/><path d="M47.33,26.3h.37c.11,0,.12-.05.12-.13V22.75c0-1.09,0-1.12-.31-1.12h-.37v-.27h4c-.09.78-.1.84-.18.84s-.12-.07-.13-.18-.44-.34-1.38-.34h-.59c-.08,0-.11,0-.11.11v1.79h.77c.87,0,.9-.1.9-.33V23h.25V24.4h-.25v-.29c0-.14,0-.23-.9-.23h-.77v.6c0,1.75,0,1.77.32,1.77h.28c.45,0,1.56,0,1.82-.45,0-.06.05-.11.12-.11s.09,0,.09.1a5.19,5.19,0,0,1-.21.78H47.33Z" transform="translate(-2.67 -3.1)" fill="#036"/><path d="M51.86,26.57V26.3h.37c.1,0,.12-.05.12-.13V22.75c0-1.09-.05-1.12-.31-1.12h-.37v-.27h2.4a1.53,1.53,0,0,1,1.73,1.41A1.25,1.25,0,0,1,54.62,24,17.52,17.52,0,0,0,56,26c.22.23.27.3.59.3v.27h-.93a.77.77,0,0,1-.41-.06,11.13,11.13,0,0,1-1.43-2.31H53.3v1c0,1.09.05,1.12.31,1.12H54v.27Zm1.44-2.64h.3c.65,0,1.24-.29,1.24-1a1.16,1.16,0,0,0-1.07-1.22h-.36c-.08,0-.11,0-.11.11Z" transform="translate(-2.67 -3.1)" fill="#036"/><path d="M56.83,22.71c0-1,1-1.51,2-1.51a2.93,2.93,0,0,1,1,.16c0,.21,0,.54,0,.67a.11.11,0,0,1-.12.12c-.08,0-.09-.07-.11-.14-.07-.36-.64-.47-.94-.47a1,1,0,0,0-1.09.88c0,1.3,2.68.68,2.68,2.66,0,.28-.24,1.65-2.08,1.65a3.83,3.83,0,0,1-1.34-.24c-.09-.47-.14-.67-.14-.77s0-.14.12-.14.11.08.14.16c.15.45.85.65,1.27.65.63,0,1.28-.33,1.28-1,0-1.4-2.67-.77-2.67-2.65" transform="translate(-2.67 -3.1)" fill="#036"/><path d="M62.11,25.18c0,1.09,0,1.12.32,1.12h.37v.27H60.67V26.3H61c.11,0,.12-.05.12-.13V22.75c0-1.09,0-1.12-.31-1.12h-.37v-.27h2.13v.27h-.37c-.11,0-.13.05-.13.13Z" transform="translate(-2.67 -3.1)" fill="#036"/><path d="M66.58,26.57H64V26.3h.61c.11,0,.12-.05.12-.13V21.68h-.15c-.38,0-1.27,0-1.48.43-.05.09-.08.15-.16.15a.09.09,0,0,1-.1-.1s.06-.19.25-.8h4.24c.19.61.25.77.25.8a.09.09,0,0,1-.1.1c-.08,0-.11-.06-.16-.15-.21-.42-1.1-.43-1.48-.43h-.15v3.5c0,1.09,0,1.12.31,1.12h.55Z" transform="translate(-2.67 -3.1)" fill="#036"/><path d="M70.84,25.18c0,1.09,0,1.12.31,1.12h.37v.27H69.39V26.3h.37c.11,0,.13-.05.13-.13V24.35l-1.09-2c-.42-.75-.49-.75-.62-.75h-.3v-.27H70v.27h-.43s-.06,0-.06.05a.8.8,0,0,0,.08.16l1.14,2.09a10.24,10.24,0,0,0,1.06-2.19c0-.1-.07-.11-.19-.11h-.42v-.27h1.52v.27h-.2c-.18,0-.21,0-.32.24L70.84,24.3Z" transform="translate(-2.67 -3.1)" fill="#036"/><path d="M93.59,9.76H88.73v7.83c0,.15,0,.23.21.23H90v.47H85.56v-.47h1c.46,0,.55-.05.55-2V9.76h-.28c-.65,0-2.22,0-2.57.74-.09.18-.15.28-.28.28a.17.17,0,0,1-.18-.18s.11-.34.44-1.4H98.39c.33,1.06.44,1.35.44,1.4a.17.17,0,0,1-.18.18c-.13,0-.19-.1-.28-.28-.35-.71-1.92-.74-2.57-.74h-.28v6.11c0,1.9.09,2,.55,2h1v.47H92.57v-.47h1.08c.18,0,.21-.08.21-.23V9.76h-.27" transform="translate(-2.67 -3.1)" fill="#036"/><path d="M33,15.7l2.79-6.5h2.43v.47h-.64c-.19,0-.22.09-.22.23v6c0,1.9.09,2,.55,2h.64v.47H34.87v-.47h.65c.18,0,.21-.08.21-.23V10.8h0L32.61,18c0,.07-.07.24-.17.24S32.3,18,32.27,18l-3.14-6.91h0v3.78a20.25,20.25,0,0,0,.1,2.51c.07.44.17.47.56.47h.57v.47H27.66v-.47h.4c.37,0,.44,0,.44-.18V11.59c0-1.24-.07-1.92-.87-1.92h-.39V9.2H30Z" transform="translate(-2.67 -3.1)" fill="#036"/><path d="M41.66,15a12.94,12.94,0,0,0-.8,2.51c0,.27.16.31.4.31h.82v.47H39.17v-.47h.46a.33.33,0,0,0,.37-.26c.6-1.57,2.09-5,3.55-8.4a8.66,8.66,0,0,1,1.15-.23c.1,0,.14.1.14.19s-.28.2-.28.48c0,.5,1.6,4.71,2.39,6.88.43,1.16.54,1.34,1,1.34h.34v.47H44.71v-.47h.65c.27,0,.31-.05.21-.34L44.71,15Zm1.65-4c-.53,1.14-1,2.28-1.42,3.41h2.59Z" transform="translate(-2.67 -3.1)" fill="#036"/><path d="M48.89,18.29v-.47h.65c.18,0,.21-.08.21-.23v-6c0-1.89-.09-1.95-.54-1.95h-.65V9.2h4.2c2,0,3,1.29,3,2.46a2.19,2.19,0,0,1-2.05,2.21,30.22,30.22,0,0,0,2.38,3.42c.38.42.48.53,1,.53v.47H55.51a1.31,1.31,0,0,1-.72-.11,19.76,19.76,0,0,1-2.49-4h-.89v1.71c0,1.9.09,2,.55,2h.64v.47Zm2.52-4.61h.52c1.14,0,2.17-.5,2.17-1.79a2,2,0,0,0-1.87-2.13H51.6c-.14,0-.19,0-.19.19Z" transform="translate(-2.67 -3.1)" fill="#036"/><path d="M70.09,9.67h-.64c-.19,0-.21.09-.21.23v4.82c0,1.13.08,3.19,2.42,3.19.64,0,2.75-.14,2.75-3V12.65a20,20,0,0,0-.1-2.5c-.07-.45-.18-.48-.56-.48h-.58V9.2h2.68v.47h-.4c-.37,0-.44,0-.44.19v5.07a3.45,3.45,0,0,1-3.74,3.64c-2.92,0-3.7-1.58-3.7-3.14V11.62c0-1.89-.08-1.95-.54-1.95h-.64V9.2h3.7Z" transform="translate(-2.67 -3.1)" fill="#036"/><path d="M76.69,17.82h.65c.19,0,.21-.08.21-.23v-6c0-1.89-.08-1.95-.54-1.95h-.64V9.2h7c-.16,1.36-.17,1.46-.31,1.46s-.22-.11-.23-.31-.77-.59-2.41-.59h-1c-.14,0-.19,0-.19.19v3.13h1.34c1.52,0,1.57-.17,1.57-.59V12h.43v2.52h-.43V14c0-.24-.05-.4-1.57-.4H79.21v1c0,3.05.06,3.1.55,3.1h.5c.77,0,2.72,0,3.17-.79,0-.1.08-.19.21-.19a.16.16,0,0,1,.16.18,9.3,9.3,0,0,1-.37,1.36H76.69Z" transform="translate(-2.67 -3.1)" fill="#036"/><path d="M99.4,17.82H100c.19,0,.22-.08.22-.23v-6c0-1.89-.09-1.95-.55-1.95h-.64V9.2h7c-.16,1.36-.18,1.46-.32,1.46s-.21-.11-.23-.31-.77-.59-2.4-.59h-1c-.14,0-.18,0-.18.19v3.13h1.33c1.52,0,1.58-.17,1.58-.59V12h.43v2.52h-.43V14c0-.24-.06-.4-1.58-.4h-1.33v1c0,3.05.06,3.1.54,3.1h.5c.78,0,2.73,0,3.17-.79.06-.1.09-.19.21-.19a.16.16,0,0,1,.16.18,9.3,9.3,0,0,1-.37,1.36H99.4Z" transform="translate(-2.67 -3.1)" fill="#036"/><path d="M56.74,14a4.8,4.8,0,0,1,4.9-5.05,4.31,4.31,0,0,1,4.61,4.58,4.81,4.81,0,0,1-4.9,5.06A4.32,4.32,0,0,1,56.74,14m7.85.31c0-3.7-2.05-4.85-3.37-4.85-.44,0-2.82.1-2.82,3.77s2.05,4.84,3.37,4.84c.44,0,2.82-.1,2.82-3.76" transform="translate(-2.67 -3.1)" fill="#036"/><path d="M62.71,16.75a2.53,2.53,0,0,1-1.49.49c1.07,1.22,2.43,2.85,3.59,2.86a6.68,6.68,0,0,0,2.44-.73L67.07,19a1.93,1.93,0,0,1-.84.24c-1,0-2.09-1-3.52-2.49" transform="translate(-2.67 -3.1)" fill="#036"/><polygon points="15.3 6.42 15.3 4.63 14.88 4.63 14.88 5.49 14.35 5.16 14.28 5.08 14.28 5.58 14.91 5.95 14.91 6.3 14.75 6.3 14.75 6.04 14.28 5.78 14.28 6.3 13.85 6.3 13.85 4.68 14.1 3.88 13.63 3.88 13.11 4.8 11.4 4.53 11.4 4.31 10.76 3.1 10.15 4.31 10.15 4.53 8.34 4.82 8.34 5.27 8.34 5.47 8.34 6.3 7.69 6.3 7.69 4.66 7.62 4.12 7.99 4.12 7.9 3.95 7.5 3.95 7.34 4.74 7.34 5.08 7.09 5.25 6.65 5.57 6.65 4.64 6.24 4.64 6.24 6.41 1.14 6.41 1.14 25.5 3.34 25.5 3.34 26.78 18.24 26.77 18.24 25.63 20.42 25.58 20.42 6.42 15.3 6.42" fill="#036"/><polygon points="5.93 6.42 5.93 6.15 1 6.15 1 6.16 1 25.77 3.42 25.77 3.42 25.5 1.27 25.5 1.27 6.42 5.93 6.42" fill="#036"/><polygon points="15.58 6.42 15.58 6.15 20.55 6.15 20.55 6.16 20.55 25.77 18.22 25.77 18.22 25.5 20.27 25.5 20.27 6.42 15.58 6.42" fill="#036"/><polygon points="8.06 0.8 7.97 0.8 7.97 0.9 8.04 0.9 7.98 1.31 7.88 1.31 7.88 1.45 7.96 1.45 7.89 1.86 7.79 1.86 7.79 2.03 7.87 2.03 7.8 2.41 7.9 2.49 7.9 3.96 7.99 4.12 8.34 4.83 8.38 4.81 8.38 2.46 8.43 2.41 8.37 2.03 8.44 2.03 8.44 1.86 8.34 1.86 8.28 1.45 8.36 1.45 8.36 1.31 8.26 1.31 8.19 0.9 8.26 0.9 8.26 0.8 8.18 0.8 8.12 0.43 8.06 0.8" fill="#036"/><polygon points="12.49 4.7 12.9 4.77 12.73 4.19 12.49 4.7" fill="#036"/><polygon points="9.46 4.66 9.88 4.56 9.66 4.08 9.46 4.66" fill="#036"/><polygon points="8.63 4.79 9.04 4.7 8.81 4.19 8.63 4.79" fill="#036"/><polygon points="0 5.2 0 26.78 3.34 26.78 3.34 26.35 0.43 26.35 0.43 5.62 5.93 5.62 5.93 5.2 0 5.2" fill="#036"/><polygon points="18.24 25.93 18.24 26.35 21.12 26.35 21.12 5.62 15.58 5.62 15.58 5.2 21.54 5.2 21.54 26.78 17.75 26.78 17.76 26.01 18.21 26 18.24 25.93" fill="#036"/><polygon points="14.58 1.22 14.49 1.22 14.49 1.32 14.56 1.32 14.5 1.73 14.39 1.73 14.39 1.87 14.47 1.87 14.41 2.28 14.31 2.28 14.31 2.45 14.38 2.45 14.32 2.83 14.39 2.89 14.39 5.19 14.87 5.49 14.87 2.89 14.95 2.83 14.89 2.45 14.96 2.45 14.96 2.28 14.86 2.28 14.79 1.87 14.88 1.87 14.88 1.73 14.77 1.73 14.71 1.32 14.78 1.32 14.78 1.22 14.69 1.22 14.63 0.85 14.58 1.22" fill="#036"/><polygon points="6.83 1.22 6.75 1.22 6.75 1.32 6.82 1.32 6.75 1.73 6.65 1.73 6.65 1.87 6.73 1.87 6.67 2.28 6.57 2.28 6.57 2.45 6.64 2.45 6.58 2.83 6.65 2.89 6.65 5.55 7.13 5.22 7.13 2.89 7.2 2.83 7.14 2.45 7.22 2.45 7.22 2.28 7.12 2.28 7.05 1.87 7.13 1.87 7.13 1.73 7.03 1.73 6.96 1.32 7.04 1.32 7.04 1.22 6.95 1.22 6.89 0.85 6.83 1.22" fill="#036"/><polygon points="11.11 1.53 11 1.53 10.93 1.09 11.02 1.09 11.02 0.95 10.91 0.95 10.84 0.51 10.92 0.51 10.92 0.4 10.82 0.4 10.76 0 10.7 0.4 10.61 0.4 10.61 0.51 10.68 0.51 10.61 0.95 10.5 0.95 10.5 1.09 10.59 1.09 10.52 1.53 10.41 1.53 10.41 1.72 10.49 1.72 10.43 2.13 10.48 2.17 10.47 3.68 10.76 3.09 11.02 3.59 11.04 2.17 11.1 2.13 11.03 1.72 11.11 1.72 11.11 1.53" fill="#036"/><polygon points="13.33 0.8 13.24 0.8 13.24 0.9 13.31 0.9 13.25 1.31 13.15 1.31 13.15 1.45 13.23 1.45 13.16 1.86 13.06 1.86 13.06 2.03 13.14 2.03 13.08 2.41 13.15 2.47 13.15 4.74 13.63 3.88 13.63 2.47 13.7 2.41 13.64 2.03 13.71 2.03 13.71 1.86 13.61 1.86 13.55 1.45 13.63 1.45 13.63 1.31 13.53 1.31 13.46 0.9 13.53 0.9 13.53 0.8 13.45 0.8 13.39 0.43 13.33 0.8" fill="#036"/><polygon points="11.64 4.57 12.04 4.64 11.88 4.08 11.64 4.57" fill="#036"/><polygon points="7.84 15.9 7.84 15.9 7.84 15.89 7.84 15.9" fill="#fc0"/><path d="M10.66,7.22h-.37l.06.54V9.88l-.37.74.23.26v4.31l-.47.49.15.26v4.24L10.35,19h0a.2.2,0,0,1-.12-.19.2.2,0,1,1,.28.18l.24.51V14.38a.24.24,0,0,1,.22-.27.2.2,0,0,1,.13,0,.29.29,0,0,1-.1-.22.26.26,0,0,1,.23-.28.23.23,0,0,1,.2.15V11.93h0l-.63.07v-.21l.64-.07h0v-.39l-.65.08v-.5l-.48-.37,1.3-.15L12,9.6,11,9.71V8.58l1.08-.16V9.6h.2V8.17L11,8.38V7.93" transform="translate(-2.67 -3.1)" fill="#fc0"/><polygon points="15.3 6.15 15.3 7.52 15.66 8.16 15.45 8.39 15.45 10.43 15.46 10.45 15.64 9.45 15.64 8.57 15.9 8.16 15.57 7.49 15.57 6.15 15.3 6.15" fill="#fc0"/><polygon points="14.1 3.88 13.85 4.69 13.85 6.75 14.3 7.54 14.04 7.76 14.04 12.09 14.49 12.57 14.34 12.84 14.34 17.6 14.89 17.6 14.89 12.84 15.07 12.58 14.6 12.16 14.6 8.03 14.89 7.78 14.28 6.83 14.28 5.78 14.75 6.05 14.75 7.11 14.91 7.26 14.91 5.95 14.28 5.59 14.28 5.08 14.1 3.88" fill="#fc0"/><polygon points="16.18 8.02 16.1 8.02 16.09 7.78 16.36 7.78 16.37 8.02 16.27 8.02 16.38 8.6 16.53 8.59 16.53 8.82 16.41 8.81 16.53 9.35 16.7 9.35 16.7 9.59 16.56 9.58 16.69 10.14 16.87 10.14 16.87 10.38 16.73 10.38 16.82 10.77 16.18 10.77 16.18 8.02" fill="#fc0"/><polygon points="16.54 11.11 16.54 13.1 17.46 13.1 18 14.13 16.75 14.13 16.87 13.84 15.26 13.84 16.09 12.76 15.86 12.76 15.86 11.11 16.54 11.11" fill="#fc0"/><polyline points="17.67 14.6 17.67 15.22 17.88 15.71 16.77 15.71 16.97 15.45 15.2 15.45 15.45 15.04 15.45 14.23 16.63 14.23 16.63 14.6 17.65 14.6" fill="#fc0"/><polyline points="17.67 16.2 17.67 18.46 18.02 19.36 16.91 19.36 17.09 19.04 15.14 19.04 15.45 18.19 15.45 17.45 16.73 17.45 16.73 17.24 15.45 17.24 15.45 15.78 16.73 15.78 16.73 16.2 17.66 16.2" fill="#fc0"/><polyline points="17.87 19.89 17.87 24.86 18.17 25.47 17 25.47 17.2 25.15 15.1 25.15 15.38 24.45 15.38 19.48 16.81 19.48 16.81 19.89 17.86 19.89" fill="#fc0"/><path d="M16.34,29.88V28a2,2,0,0,1,.83-.81,1.15,1.15,0,0,1,.28.19h0V27h0a1.93,1.93,0,0,0-.28-.17,2,2,0,0,0-.83.78l0-.34a1.59,1.59,0,0,1,.82-.72,1.33,1.33,0,0,1,.31.16V23.26H16.38v-.55H15.32v7.18Z" transform="translate(-2.67 -3.1)" fill="#fc0"/><polygon points="12.44 19.13 13.91 19.13 13.81 19.31 14.18 19.31 14.48 18.46 14.48 17.88 13.6 17.88 13.6 17.71 12.78 17.71 12.78 17.72 12.78 18.36 12.45 19.12 12.44 19.13" fill="#fc0"/><path d="M15.75,19a.19.19,0,1,1,.27-.18.19.19,0,0,1-.12.18l.62,1.51H15.14Z" transform="translate(-2.67 -3.1)" fill="#fc0"/><path d="M15.81,12v1.7h-.06a.26.26,0,0,0-.23.27.29.29,0,0,0,.1.23.18.18,0,0,0-.12-.05.26.26,0,0,0-.23.28v4.5h0l-.31.7V10.72h0l.22,0v.56l.61.07v.42h0l-.62-.08v.21l.6.08Z" transform="translate(-2.67 -3.1)" fill="#fc0"/><path d="M11.62,20.51H10.45L11,19a.21.21,0,0,1-.11-.18.19.19,0,0,1,.19-.19.2.2,0,0,1,.2.19.22.22,0,0,1-.12.19l.53,1.51Z" transform="translate(-2.67 -3.1)" fill="#fc0"/><path d="M14.64,11.85l-.8-.1v-.2l.8.1v-.41l-.81-.09v-.67h-.76v8.62h-.14v1.6H12v-10l-.24,0v9.76l-.16.34h-.91v.59l-.34.82h1.43l-.07.12H14l.28-.75H11.53l-.06-.27h3V20.7H14V19.12h-.14V14.21a.24.24,0,0,1,.23-.26.25.25,0,0,1,.12,0,.28.28,0,0,1,.13-.49.25.25,0,0,1,.23.27.29.29,0,0,1-.1.23.18.18,0,0,1,.12-.05h.07V11.85Z" transform="translate(-2.67 -3.1)" fill="#fc0"/><polygon points="4.54 12.97 4.18 14.06 3.73 14.06 4.29 12.99 4.54 12.97" fill="#fc0"/><polygon points="4.26 18.5 4.26 15.8 3.93 15.8 3.93 18.47 3.6 19.25 4.04 19.25 4.26 18.5" fill="#fc0"/><polygon points="4.24 15.58 4.29 15.21 4.29 14.32 4.28 14.3 3.94 14.3 3.94 15.29 3.76 15.59 4.24 15.59 4.24 15.58" fill="#fc0"/><polygon points="3.72 19.69 3.72 24.8 3.37 25.36 3.73 25.36 3.95 25.03 4.07 24.84 4.08 19.68 3.72 19.69" fill="#fc0"/><rect x="4.7" y="25.64" width="1.5" height="1.14" fill="#fc0"/><path d="M7.43,22.55v5l-.27.73H9.07l-.13-.42a2.2,2.2,0,0,1,.75-.68.9.9,0,0,1,.19.11v-.39h0a1.1,1.1,0,0,0-.2-.11,2.12,2.12,0,0,0-.77.66v-.3a1.74,1.74,0,0,1,.77-.6.82.82,0,0,1,.21.09h0V23.24h-1v-.7Z" transform="translate(-2.67 -3.1)" fill="#fc0"/><polygon points="6.48 19 4.53 19 4.82 18.14 4.82 17.41 4.81 17.41 6.12 17.41 6.12 17.88 7.14 17.88 7.14 18.41 6.88 19.3 6.35 19.3 6.48 19" fill="#fc0"/><polygon points="5.11 11.02 5.11 12.72 5.1 12.72 5.5 12.72 4.67 13.87 4.67 13.88 6.27 13.88 5.75 13.13 5.75 11.02 5.11 11.02" fill="#fc0"/><polygon points="6.71 7.23 6.87 7.14 6.87 6.04 7.26 5.84 7.26 5.66 6.71 5.95 6.71 7.23 6.71 7.23" fill="#fc0"/><polygon points="6.62 12.49 6.84 12.33 6.84 8 6.64 8.13 6.62 12.49" fill="#fc0"/><polygon points="15.39 26.78 15.39 25.63 16.85 25.63 16.85 26.01 17.76 26.01 17.76 26.78 15.39 26.78" fill="#fc0"/><polygon points="4.66 15.43 4.89 15.05 4.89 14.27 6.08 14.27 6.08 15.07 6.3 15.43 4.66 15.43" fill="#fc0"/><polyline points="6.09 10.68 6.09 8.41 5.9 8.22 6.24 7.47 6.23 6.14 5.93 6.15 5.93 7.46 5.67 8.18 5.82 8.44 5.82 9.5 6.08 10.69" fill="#fc0"/><polygon points="6.31 15.43 6.09 15.08 6.09 14.26 4.89 14.26 4.89 15.05 4.67 15.43 6.31 15.43" fill="#fc0"/><polygon points="6.12 17.19 6.12 15.74 4.82 15.75 4.82 17.17 6.12 17.19" fill="#fc0"/><polygon points="7.84 19.59 7.87 19.59 7.87 19.58 7.84 19.59" fill="#fc0"/><path d="M14.74,26.86v0" transform="translate(-2.67 -3.1)" fill="#fc0"/><path d="M14.75,26.38a4.15,4.15,0,0,0-1.32-1A4.4,4.4,0,0,0,11.6,27l0-.49A3.62,3.62,0,0,1,13.4,25a3.33,3.33,0,0,1,1.34.91h0V25.5a4.8,4.8,0,0,0-.58-.5V23.23H11.58V22.7h-1v7.18h1V27.6a4,4,0,0,1,.78-.94,3.15,3.15,0,0,1,.8.93v2.29h.57V27.6a4.27,4.27,0,0,1,.79-.94l.24.24Zm-1.31.91a4.86,4.86,0,0,0-.78-.92,4,4,0,0,1,.77-.57,3.86,3.86,0,0,1,.78.57,6,6,0,0,0-.77.92" transform="translate(-2.67 -3.1)" fill="#fc0"/><polygon points="5.37 10.79 5.37 8.07 5.47 8.06 5.47 7.83 5.23 7.83 5.23 8.06 5.31 8.06 5.21 8.59 5 8.58 5 8.83 5.16 8.83 5.05 9.36 4.88 9.36 4.88 9.62 4.97 9.63 4.87 10.16 4.73 10.16 4.74 10.4 4.82 10.41 4.75 10.79 5.37 10.79" fill="#fc0"/><path d="M15.77,9.74l-.91-.1V8.43l.76.12V8.34l-1.85-.29V7.59h0V7.46l-.34-.7-.35.71v.12h0v2.63h.71l2.65.31ZM14.6,9.6l-.84-.09V8.24l.84.15Z" transform="translate(-2.67 -3.1)" fill="#fc0"/></svg>